<svg xmlns="http://www.w3.org/2000/svg" viewBox="0 0 1000 500" preserveAspectRatio="none"><rect width="1000" height="500" fill="#000"/><g fill="#fff"><path d="M75 68l42-34 52 8 35 30-12 29-36 15-10 36-32 17-25-31-29-17 15-32z"/><path d="M191 166l31 19 17 58 28 50-13 87-29 63-26-55 7-65-25-68-14-55z"/><path d="M411 74l63-32 82 12 69 8 26 42-24 34-51-12-43 26-57-10-32 25-46-24 10-39z"/><path d="M473 174l49 22 28 54-10 51-41 31-39-43-19-57 32-58z"/><path d="M591 162l47-14 48 22 15 42-37 25-8 50-49 8-33-36 17-47z"/><path d="M681 107l42-33 95 10 72 35 23 58-30 36-58-9-39-40-49 19-48-27z"/><path d="M744 233l58 11 45 48 19 72-43 47-44-17-31-64-30-48 26-49z"/><path d="M807 404l43 7 38 35-31 27-61-13-9-29z"/><path d="M895 80l61 18 28 41-15 36-42-4-31-31z"/></g></svg>
